<?xml version="1.0" standalone="no"?>
<!DOCTYPE svg PUBLIC "-//W3C//DTD SVG 20010904//EN"
 "http://www.w3.org/TR/2001/REC-SVG-20010904/DTD/svg10.dtd">
<svg version="1.0" xmlns="http://www.w3.org/2000/svg"
 width="700.000000pt" height="700.000000pt" viewBox="0 0 700.000000 700.000000"
 preserveAspectRatio="xMidYMid meet">
<metadata>
Created by potrace 1.14, written by Peter Selinger 2001-2017
</metadata>
<g transform="translate(0.000000,700.000000) scale(0.100000,-0.100000)"
fill="#000000" stroke="none">
<path d="M3342 4649 c-12 -5 -34 -29 -49 -54 -24 -38 -33 -45 -60 -45 -40 0
-53 -14 -182 -185 -54 -71 -152 -184 -217 -250 -130 -131 -166 -173 -241 -274
-2 -2 -11 3 -21 12 -43 39 -87 12 -117 -69 -76 -206 -75 -205 -155 -290 -43
-45 -86 -96 -96 -113 -10 -17 -21 -31 -25 -31 -4 0 -26 58 -49 130 -46 143
-63 173 -103 173 -35 0 -132 -71 -238 -174 -72 -70 -149 -164 -149 -182 0 -2
-12 -25 -26 -51 -20 -35 -29 -44 -39 -36 -16 13 -63 -3 -72 -26 -5 -13 -11
-10 -34 15 -41 45 -82 38 -114 -19 -65 -118 -162 -329 -204 -441 -51 -139 -90
-215 -142 -278 -34 -42 -37 -71 -8 -97 21 -19 76 -19 2497 -19 2383 0 2476 1
2499 18 30 24 29 50 -4 106 -31 53 -50 71 -118 111 -28 16 -58 43 -69 60 -23
40 -89 88 -130 95 -23 5 -39 18 -58 48 -15 23 -55 71 -89 107 -34 36 -82 94
-106 129 -25 34 -76 104 -114 153 -38 50 -69 94 -69 98 0 13 -52 60 -67 60
-11 0 -194 -83 -234 -106 -3 -2 -18 18 -32 44 -54 97 -145 174 -258 218 -59
23 -73 33 -95 71 -59 101 -206 202 -315 217 l-47 7 -47 112 c-26 62 -53 118
-61 126 -9 10 -36 15 -79 15 l-66 1 -41 75 c-79 148 -128 220 -154 226 -13 4
-44 1 -69 -5 -56 -14 -55 -14 -55 6 0 41 -82 185 -138 241 -61 63 -104 84
-140 71z m13 -161 c-4 -18 -20 -57 -36 -86 -31 -56 -31 -72 2 -72 35 0 59 -19
59 -46 0 -19 -21 -46 -75 -100 -41 -41 -79 -74 -84 -74 -13 0 -42 -48 -43 -73
-2 -58 -2 -59 51 -52 108 14 162 -69 117 -176 -13 -31 -12 -38 6 -77 11 -23
34 -53 50 -67 30 -25 30 -36 -2 -65 -19 -17 -49 -70 -54 -97 l-7 -31 48 -1
c56 0 132 -9 144 -17 5 -3 8 -43 8 -89 -1 -72 2 -93 24 -137 l26 -52 -59 -63
c-66 -70 -76 -95 -84 -222 -6 -108 -36 -174 -81 -178 -54 -6 -75 -13 -95 -33
-28 -28 -25 -65 7 -95 46 -42 103 -31 213 40 76 50 106 80 163 165 23 35 53
70 66 79 l23 15 -7 -59 c-9 -78 -32 -123 -82 -160 -56 -40 -68 -70 -52 -126
20 -69 19 -98 -3 -110 -19 -10 -171 -14 -186 -5 -8 5 -135 19 -172 19 -90 -1
-91 -1 -84 -30 l6 -28 -18 25 c-10 14 -26 33 -35 43 -9 10 -25 35 -35 57 -23
48 -71 68 -179 77 -77 6 -124 26 -142 64 -32 62 -2 131 82 187 63 42 71 59 52
105 -13 31 -23 38 -69 52 -29 8 -70 18 -90 22 -43 6 -51 23 -13 23 26 0 26 0
6 21 -10 11 -30 53 -44 92 -23 63 -24 72 -10 82 8 6 17 32 20 57 5 41 1 54
-33 110 -36 59 -58 89 -94 127 -9 9 -22 25 -30 35 -14 18 -14 19 8 7 30 -16
28 -1 -8 44 -31 39 -36 60 -20 85 7 12 14 12 44 2 129 -47 227 -33 262 36 10
20 25 45 32 54 20 24 7 52 -34 71 -29 14 -34 21 -28 40 12 41 54 86 111 119
69 40 133 102 133 128 0 14 11 22 38 30 58 15 106 68 131 142 17 51 34 76 88
130 37 38 69 68 71 68 2 0 1 -15 -3 -32z m431 -336 c35 -28 53 -65 65 -128 13
-70 26 -98 89 -185 56 -77 82 -145 74 -189 -8 -35 9 -60 40 -60 12 0 51 -10
87 -22 51 -17 78 -34 132 -86 41 -40 67 -59 67 -49 0 25 16 29 17 4 3 -136 4
-140 45 -183 22 -23 40 -45 39 -48 -6 -33 4 -47 55 -76 49 -27 54 -33 42 -47
-7 -9 -32 -25 -55 -35 -23 -10 -45 -23 -49 -29 -7 -11 -7 -45 0 -124 4 -62
-15 -142 -51 -202 -22 -39 -28 -43 -33 -27 -4 10 -4 35 -1 54 3 19 6 64 6 98
0 56 -3 66 -25 84 l-25 20 -4 -43 -3 -44 -14 45 c-8 25 -17 86 -20 135 -7 119
-7 119 -49 112 -32 -5 -38 -1 -119 83 -64 68 -83 94 -79 110 3 11 10 20 17 20
6 0 17 4 24 8 17 12 -15 116 -57 181 -55 85 -106 124 -206 157 -89 29 -89 29
-47 32 l42 3 -7 42 c-10 53 -9 140 1 238 7 66 6 80 -13 119 -11 24 -21 45 -21
47 0 8 17 1 36 -15z m-1860 -722 c-20 -108 -9 -189 37 -269 37 -63 168 -241
178 -241 5 0 9 -5 9 -10 0 -7 -6 -7 -19 0 -32 17 -37 12 -40 -34 -3 -76 -9
-90 -55 -131 -39 -35 -48 -52 -72 -130 -15 -49 -27 -97 -27 -105 1 -25 -27
-48 -77 -65 -61 -20 -106 -15 -102 11 2 10 16 35 31 54 44 56 50 87 45 237 -5
146 -14 191 -42 216 -16 15 -17 13 -16 -18 1 -21 -11 -59 -33 -102 -29 -58
-34 -77 -32 -128 1 -33 6 -73 10 -89 7 -24 3 -38 -21 -76 -16 -26 -33 -60 -36
-78 l-6 -31 -98 1 c-107 0 -119 7 -94 49 33 58 54 108 60 149 4 25 15 57 25
72 16 22 19 46 20 145 0 87 3 111 10 92 8 -21 15 -25 35 -21 17 3 36 -3 56
-18 56 -41 68 15 24 114 -28 63 -28 99 1 142 9 14 24 29 33 34 11 6 19 26 22
55 3 25 11 52 18 60 12 14 15 14 30 0 10 -9 20 -30 24 -46 11 -55 26 -19 26
62 0 44 5 90 11 102 17 34 62 78 70 70 4 -5 2 -37 -5 -73z m3111 -287 c55 -88
92 -132 146 -174 42 -33 52 -37 65 -27 13 11 15 10 9 -12 -37 -132 -42 -162
-25 -174 36 -27 68 -89 68 -135 1 -43 4 -48 56 -91 30 -25 73 -54 95 -66 l40
-20 -48 -22 c-77 -35 -101 -36 -134 -2 -26 25 -38 29 -92 31 -80 3 -122 15
-147 41 -16 18 -19 30 -14 73 l6 52 -47 39 c-46 39 -99 125 -109 178 -3 14 6
65 19 113 29 108 34 147 23 196 -10 46 -5 57 28 57 19 0 32 -13 61 -57z
m-3652 -40 c-1 -27 4 -71 11 -99 12 -47 11 -55 -6 -89 -17 -34 -18 -41 -5 -65
15 -30 11 -40 -16 -40 -11 0 -23 -16 -35 -49 -17 -49 -34 -59 -34 -20 0 30
-17 14 -43 -39 -20 -41 -22 -53 -13 -95 8 -39 6 -54 -8 -85 -17 -35 -19 -36
-27 -15 -4 12 -17 27 -29 33 -37 20 -40 49 -8 99 15 25 28 54 28 65 1 40 28
95 70 146 49 59 80 133 80 194 0 46 17 106 30 106 4 0 7 -21 5 -47z"/>
</g>
</svg>
