<?xml version="1.0" standalone="no"?>
<!DOCTYPE svg PUBLIC "-//W3C//DTD SVG 20010904//EN"
 "http://www.w3.org/TR/2001/REC-SVG-20010904/DTD/svg10.dtd">
<svg version="1.0" xmlns="http://www.w3.org/2000/svg"
 width="512.000000pt" height="512.000000pt" viewBox="0 0 512.000000 512.000000"
 preserveAspectRatio="xMidYMid meet">
<metadata>
Created by potrace 1.14, written by Peter Selinger 2001-2017
</metadata>
<g transform="translate(0.000000,512.000000) scale(0.100000,-0.100000)"
fill="#000000" stroke="none">
<path d="M2419 3659 c-16 -17 -29 -35 -29 -40 0 -5 -10 -9 -23 -9 -33 0 -44
-11 -142 -139 -48 -63 -127 -153 -175 -200 -47 -48 -106 -112 -129 -144 -34
-44 -47 -55 -57 -46 -7 6 -25 9 -40 7 -29 -3 -32 -9 -89 -162 -11 -29 -41 -75
-74 -111 -31 -34 -65 -74 -77 -90 l-20 -29 -28 90 c-38 120 -51 144 -80 144
-56 0 -246 -178 -300 -281 -24 -46 -33 -55 -51 -51 -12 2 -29 -4 -39 -13 -16
-17 -18 -16 -33 4 -10 15 -23 21 -41 19 -23 -3 -35 -19 -84 -113 -32 -60 -76
-157 -98 -215 -62 -160 -72 -181 -108 -228 -22 -30 -32 -52 -30 -70 l3 -27
1885 0 1885 0 3 30 c3 41 -27 86 -84 126 -26 18 -66 52 -89 76 -24 24 -54 45
-72 49 -17 3 -36 17 -46 32 -8 15 -44 59 -79 98 -35 39 -94 115 -133 169 -38
53 -82 111 -97 128 l-26 32 -91 -44 c-50 -25 -92 -43 -94 -40 -2 2 -13 20 -25
40 -32 52 -105 117 -165 145 -29 13 -57 24 -62 24 -6 0 -19 16 -29 35 -38 70
-169 165 -229 165 -37 0 -55 21 -87 99 -17 44 -38 85 -46 92 -9 7 -31 9 -58 6
l-44 -6 -40 77 c-22 42 -55 97 -72 120 -31 43 -32 44 -78 37 l-47 -6 -28 65
c-32 71 -93 148 -138 171 -37 20 -36 20 -70 -16z m7 -160 c-23 -45 -24 -50 -8
-55 73 -23 68 -48 -22 -130 -65 -58 -76 -73 -76 -101 0 -31 1 -32 51 -35 43
-2 56 -8 72 -30 19 -25 19 -31 8 -81 -15 -59 -5 -92 38 -131 l21 -19 -30 -34
c-17 -18 -30 -38 -30 -43 0 -4 -3 -15 -6 -23 -4 -12 7 -17 53 -22 97 -11 93
-8 93 -84 0 -46 6 -78 19 -105 l20 -38 -36 -31 c-49 -43 -72 -99 -73 -172 0
-37 -8 -76 -20 -102 -17 -38 -23 -43 -52 -43 -41 0 -78 -24 -78 -51 0 -29 36
-59 70 -59 61 0 172 76 219 148 17 27 42 59 56 72 l25 23 0 -28 c0 -58 -23
-106 -68 -143 -48 -39 -46 -31 -26 -139 6 -30 4 -32 -31 -39 -20 -3 -65 -4
-98 0 -189 20 -215 20 -219 0 -3 -15 -13 -5 -41 38 -21 32 -46 62 -58 68 -11
6 -52 14 -92 17 -85 7 -117 31 -117 86 0 41 27 79 82 113 35 22 39 29 33 52
-10 41 -22 50 -83 63 -69 15 -99 28 -63 29 18 0 21 3 13 13 -6 6 -20 37 -31
66 -18 49 -19 57 -6 71 8 9 15 29 15 45 0 31 -48 121 -81 151 -11 10 -25 27
-31 38 -9 16 -8 18 7 12 14 -5 11 2 -9 28 -46 61 -30 95 31 69 39 -16 117 -17
144 -3 20 11 69 82 69 100 0 5 -13 16 -30 25 -16 9 -30 22 -30 30 0 21 58 83
94 102 39 19 86 63 86 79 0 7 24 25 52 41 47 25 55 34 78 90 28 69 112 167
118 138 2 -10 -8 -39 -22 -66z m362 -202 c13 -13 27 -49 34 -82 8 -44 26 -80
67 -140 47 -68 56 -87 57 -129 l2 -50 74 -23 c57 -19 84 -34 121 -71 28 -28
47 -40 48 -32 1 35 18 -29 18 -72 1 -35 6 -50 21 -61 11 -7 26 -29 34 -48 9
-22 29 -43 50 -54 20 -11 36 -22 36 -26 0 -3 -20 -17 -45 -30 l-45 -24 2 -80
c1 -68 -2 -89 -26 -140 -33 -72 -50 -60 -34 24 7 38 6 62 -2 82 -17 39 -40 46
-41 11 l-1 -27 -9 30 c-6 17 -13 64 -17 105 -7 72 -8 75 -31 72 -19 -2 -40 13
-88 60 -66 65 -76 90 -44 108 16 8 18 15 11 40 -31 109 -98 183 -197 216 -42
15 -58 24 -42 24 35 0 37 4 28 53 -5 24 -4 79 3 128 9 73 8 90 -6 117 -26 50
-15 59 22 19z m-1409 -514 c-12 -52 -11 -120 2 -166 11 -39 101 -180 148 -231
23 -25 24 -27 4 -17 -32 16 -33 15 -33 -35 0 -39 -5 -51 -38 -83 -29 -29 -42
-54 -61 -120 -20 -70 -29 -86 -55 -102 -42 -25 -96 -26 -96 -1 0 11 9 27 20
37 10 9 24 32 30 51 14 41 6 244 -10 274 -11 21 -14 19 -37 -36 -40 -97 -44
-115 -33 -172 8 -48 7 -55 -15 -88 -14 -20 -25 -45 -25 -55 0 -17 -9 -19 -74
-19 -41 0 -77 4 -80 9 -3 5 8 35 24 66 17 31 30 69 30 84 0 15 7 36 15 47 10
13 15 46 15 104 1 47 4 79 7 73 2 -7 13 -13 22 -13 10 0 30 -9 43 -20 14 -10
28 -16 32 -13 11 11 6 67 -9 93 -24 42 -19 97 12 128 15 15 26 32 25 38 -4 21
17 64 33 64 8 0 17 -11 21 -25 11 -46 24 -26 24 39 0 55 4 69 26 95 34 41 44
39 33 -6z m2356 -263 c48 -71 117 -136 135 -125 14 9 13 -8 -6 -71 l-16 -55
31 -35 c28 -31 36 -56 32 -91 -2 -15 70 -82 111 -104 l30 -15 -26 -17 c-48
-32 -82 -32 -110 -2 -17 18 -34 26 -53 25 -67 -5 -95 1 -118 24 -19 19 -22 31
-18 63 5 36 2 41 -30 66 -39 30 -80 106 -79 147 0 15 8 53 17 84 9 32 16 81
15 109 -3 67 -3 67 19 67 13 0 35 -24 66 -70z m-2751 -102 c5 -9 1 -27 -9 -42
-13 -19 -14 -29 -6 -45 15 -26 14 -31 -5 -31 -9 0 -22 -17 -32 -41 -13 -33
-17 -37 -25 -24 -8 15 -12 14 -28 -11 -15 -23 -18 -39 -13 -76 3 -26 1 -55 -5
-66 -11 -20 -11 -20 -41 6 -33 29 -37 47 -16 71 7 9 21 42 30 73 9 32 29 73
45 90 40 46 61 91 61 130 0 18 6 51 12 73 l12 40 7 -65 c3 -36 10 -73 13 -82z"/>
</g>
</svg>
