<?xml version="1.0" standalone="no"?>
<!DOCTYPE svg PUBLIC "-//W3C//DTD SVG 20010904//EN"
 "http://www.w3.org/TR/2001/REC-SVG-20010904/DTD/svg10.dtd">
<svg version="1.0" xmlns="http://www.w3.org/2000/svg"
 width="512.000000pt" height="512.000000pt" viewBox="0 0 512.000000 512.000000"
 preserveAspectRatio="xMidYMid meet">
<metadata>
Created by potrace 1.14, written by Peter Selinger 2001-2017
</metadata>
<g transform="translate(0.000000,512.000000) scale(0.100000,-0.100000)"
fill="#000000" stroke="none">
<path d="M2310 5109 c-502 -55 -974 -249 -1355 -556 -129 -104 -340 -321 -433
-445 -265 -354 -434 -758 -498 -1193 -22 -147 -29 -428 -15 -575 42 -433 180
-833 405 -1174 414 -629 1047 -1032 1791 -1142 147 -22 428 -29 575 -15 524
51 988 238 1385 558 129 104 340 321 433 445 271 362 440 774 504 1228 17 124
17 516 0 635 -67 464 -234 873 -501 1230 -92 122 -304 341 -426 440 -357 290
-795 482 -1260 551 -121 18 -487 26 -605 13z m194 -1444 c20 -14 48 -37 61
-53 26 -29 85 -142 85 -162 0 -9 13 -10 49 -5 60 8 66 3 141 -133 l55 -99 45
5 c55 5 59 2 105 -104 l34 -79 55 -16 c99 -30 196 -103 227 -173 7 -14 26 -28
49 -35 84 -25 168 -99 226 -199 2 -2 42 15 90 37 48 23 94 39 103 36 9 -3 27
-22 40 -43 49 -76 148 -207 197 -261 27 -31 65 -75 82 -98 19 -24 44 -44 60
-48 31 -7 60 -29 84 -63 9 -13 38 -38 64 -55 88 -58 124 -146 68 -167 -35 -14
-3693 -14 -3728 0 -37 14 -33 48 14 117 22 32 60 110 84 173 42 113 117 274
156 338 23 37 63 44 82 12 11 -18 14 -18 30 -3 10 9 28 13 41 11 20 -4 28 4
57 60 53 103 237 272 295 272 31 0 38 -11 76 -128 l34 -103 20 28 c10 15 43
53 71 83 60 64 64 71 105 185 34 94 56 115 95 90 19 -13 24 -10 60 38 21 29
86 100 144 160 58 59 141 156 185 215 69 93 84 107 112 110 21 2 34 10 38 22
6 19 51 60 65 60 4 0 24 -11 44 -25z"/>
<path d="M2398 3532 c-30 -30 -54 -68 -68 -104 -21 -56 -50 -88 -95 -102 -11
-3 -28 -21 -38 -39 -10 -19 -41 -46 -70 -64 -59 -35 -92 -68 -102 -100 -5 -19
-1 -25 20 -33 14 -5 28 -16 31 -23 6 -16 -32 -85 -56 -104 -20 -17 -113 -16
-153 0 -60 26 -75 -4 -32 -63 30 -40 30 -41 8 -33 -12 4 -5 -9 18 -38 89 -111
110 -169 74 -209 -14 -15 -14 -20 0 -46 8 -16 15 -36 15 -44 0 -9 7 -25 15
-37 14 -20 14 -22 -7 -25 -14 -2 3 -10 46 -20 75 -18 91 -29 101 -70 6 -23 2
-30 -33 -52 -79 -50 -105 -118 -62 -164 22 -23 37 -28 117 -36 71 -7 87 -17
130 -84 26 -40 38 -52 41 -39 4 21 46 22 182 5 52 -6 112 -8 134 -4 36 7 38 9
32 39 -20 108 -22 100 27 140 44 36 67 87 67 148 l0 22 -25 -23 c-14 -13 -39
-45 -56 -72 -46 -71 -158 -148 -216 -148 -39 0 -73 26 -73 55 0 28 34 55 70
55 14 0 30 4 37 8 22 14 43 81 43 139 0 70 24 125 72 171 l35 33 -18 37 c-13
25 -19 58 -19 104 0 76 4 72 -93 81 -26 3 -51 7 -54 11 -9 9 17 62 42 86 l24
23 -35 41 c-32 37 -35 45 -29 81 20 110 1 145 -77 145 -48 0 -48 0 -48 33 0
28 11 43 75 102 41 38 75 76 75 85 0 21 -20 40 -41 40 -28 0 -32 18 -10 46 19
24 37 81 29 89 -2 3 -25 -17 -50 -43z"/>
<path d="M2750 3313 c0 -5 6 -15 13 -22 8 -8 12 -55 12 -161 l0 -150 -30 0
c-23 0 -14 -6 38 -24 98 -33 169 -109 195 -209 9 -32 8 -38 -9 -47 -31 -17
-23 -38 42 -105 47 -50 67 -63 87 -62 26 2 27 1 33 -73 7 -77 27 -150 28 -102
1 31 18 28 36 -8 12 -22 14 -47 9 -102 -6 -70 -5 -72 10 -51 34 46 46 92 46
178 0 84 0 86 27 96 16 6 36 17 45 26 16 15 15 18 -27 44 -27 17 -45 36 -45
47 0 10 -11 29 -25 42 -14 13 -25 35 -25 49 0 45 -13 103 -20 92 -4 -7 -24 6
-51 33 -34 35 -61 50 -119 69 l-75 24 3 36 c4 40 -10 71 -73 163 -28 41 -46
79 -51 109 -3 25 -16 60 -28 77 -21 31 -46 48 -46 31z"/>
<path d="M1346 2789 c-22 -26 -26 -40 -26 -95 0 -65 -13 -85 -24 -38 -10 38
-40 28 -44 -15 -2 -22 -14 -44 -33 -62 -33 -31 -37 -67 -14 -122 15 -37 20
-89 9 -100 -4 -3 -19 3 -34 15 -16 11 -35 18 -44 15 -9 -4 -17 1 -19 11 -3 9
-5 -22 -6 -69 -1 -58 -6 -91 -16 -105 -8 -10 -15 -31 -15 -45 0 -15 -13 -53
-30 -84 -16 -31 -27 -61 -24 -66 3 -5 39 -9 80 -9 62 0 74 3 74 17 0 9 11 35
24 58 22 37 24 46 15 86 -13 54 -5 96 27 157 14 26 23 56 20 66 -5 18 -3 18
16 -2 20 -19 22 -35 26 -149 l3 -128 -30 -45 c-42 -62 -41 -74 9 -67 68 9 84
26 111 119 19 66 32 91 61 120 33 32 38 43 38 83 0 49 1 50 33 34 20 -10 19
-8 -4 17 -47 51 -137 192 -148 231 -13 46 -14 114 -2 166 11 45 1 47 -33 6z"/>
<path d="M3649 2583 c-1 -4 -1 -33 0 -63 1 -30 -5 -77 -13 -105 -9 -27 -16
-64 -16 -81 0 -46 36 -120 71 -145 37 -26 50 -56 38 -87 -7 -18 -4 -28 16 -48
21 -20 33 -24 89 -24 55 0 67 -3 76 -20 16 -31 52 -34 100 -10 l42 22 -26 13
c-14 7 -46 31 -71 51 -39 33 -45 43 -45 76 0 27 -8 47 -31 72 l-31 35 16 55
c20 67 20 77 1 70 -19 -8 -113 87 -146 146 -16 29 -32 46 -47 48 -12 2 -23 0
-23 -5z"/>
<path d="M958 2544 c-4 -6 -10 -38 -14 -70 -8 -66 -24 -104 -65 -151 -15 -18
-33 -52 -39 -75 -7 -24 -21 -62 -33 -86 l-21 -43 32 -29 c31 -28 32 -28 43 -9
6 11 7 38 4 64 -5 33 -3 51 11 74 20 35 34 40 35 14 0 -10 9 1 19 25 11 23 26
42 35 42 18 0 19 5 5 31 -8 14 -7 27 4 48 8 15 12 31 9 35 -4 3 -9 36 -12 74
-3 37 -9 62 -13 56z"/>
</g>
</svg>
